<svg version="1.2" xmlns="http://www.w3.org/2000/svg" viewBox="0 0 514 258" width="514" height="258">
	<title>Proyecto nuevo</title>
	<style>
		.s0 { fill: #ffffff;stroke: #000000;stroke-linejoin: round;stroke-width: 2 } 
		.s1 { fill: #000000 } 
		.s2 { fill: #ffffff;stroke: #000000;paint-order:stroke fill markers;stroke-linejoin: round;stroke-width: 4 } 
		.s3 { fill: #00ff00;stroke: #000000;paint-order:stroke fill markers;stroke-linejoin: round;stroke-width: 4 } 
		.s4 { fill: none;stroke: #000000;stroke-linejoin: round;stroke-dasharray: 4,2 } 
	</style>
	<path id="Forma 1" class="s0" d="m40.5 0.8l433-0.1c22.1 0 40 18 40 40v176.6c0 22-17.9 40-40 40h-433c-22.1 0-40-18-40-40v-176.5c0-22.1 17.9-40 40-40z"/>
	<path id="Z2" class="s1" aria-label="Z2"  d="m341.2 227.2c-0.2-0.1-0.4-0.2-0.9-0.3 0.1 0.5 0.1 1-0.3 1.6-0.3 0.5-1.1 1-2.3 1.1l-6 0.4 9.7-12.6c0.9-1 1-1.7 1-3l-0.4-1.1c-1 0.3-2.2 0.3-3.3 0.3l-5.7-0.2c-3.4-0.1-4.9 1.3-4.9 3.2 0 0.9 0.5 1.7 1.1 2.1 0.5 0.4 1.1 0.6 1.8 0.7-0.2-0.5-0.1-0.9 0.2-1.6 0.4-0.6 1.3-0.9 2.2-1l5.4-0.4-9.6 12.8c-0.8 1-1 1.8-1 3.1l0.5 0.9c1-0.3 1.5-0.4 2.6-0.3l7.4 0.2c3 0 4.4-1.3 4.4-3.2 0-1.3-0.8-2.2-1.9-2.7zm3.6 5.8h9c0.8 0 0.8-2.4 0.1-2.9-1.2 0.7-5.6 1.5-7.5 1.5 1.4-0.7 7.5-3.9 7.5-8.9 0-2.7-2-3.9-4.7-3.9-2.8 0-4.6 1.3-4.6 2.8 0 0.7 0.4 1.7 2.3 1.7 0-1.5 0.3-3.7 2.1-3.7 1.5 0 2 1.4 2 2.9 0 4.4-5.5 7.8-6.5 9-0.2 0.7 0 1.2 0.3 1.5z"/>
	<path id="Z1 copy" class="s1" aria-label="Z1"  d="m179.2 227.2c-0.2-0.1-0.4-0.2-0.9-0.3 0.1 0.5 0.1 1-0.3 1.6-0.3 0.5-1.1 1-2.3 1.1l-6 0.4 9.7-12.6c0.9-1 1-1.7 1-3l-0.4-1.1c-1 0.3-2.2 0.3-3.3 0.3l-5.7-0.2c-3.4-0.1-4.9 1.3-4.9 3.2 0 0.9 0.5 1.7 1.1 2.1 0.5 0.4 1.1 0.6 1.8 0.7-0.2-0.5-0.1-0.9 0.2-1.6 0.4-0.6 1.3-0.9 2.2-1l5.4-0.4-9.6 12.8c-0.8 1-1 1.8-1 3.1l0.5 0.9c1-0.3 1.5-0.4 2.6-0.3l7.4 0.2c3 0 4.4-1.3 4.4-3.2 0-1.3-0.8-2.2-1.9-2.7zm9.6 2.9v-9.8c0-0.9-0.6-1.4-1.5-1.4-0.5 0-0.8 0.1-1.1 0.3-0.5 0.3-3.8 2.5-3.9 2.6 0 0.1-0.2 1.7 1.1 1.7 0.7 0 2-1.4 2.7-2.3 0 0.3 0 0.5 0 0.9v9.8c0 0.9 0.7 1.4 1.6 1.4 0.8 0 1.3-0.4 1.5-0.6-0.3-0.9-0.4-1.9-0.4-2.6z"/>
	<path id="Capa 1" class="s2" d="m26.2 202.5c243.6 0 167.1-144.8 230.8-145.8 80.1-1.1 10.3 146.7 226.9 146.7 112.1 0-551.9-0.9-457.7-0.9z"/>
	<path id="0" class="s1" aria-label="0"  d="m257 233.4c4.9 0 7.4-3.4 7.4-10.2 0-6.7-2.5-10.1-7.4-10.1-4.9 0-7.5 3.4-7.5 10.1 0 6.8 2.6 10.2 7.5 10.2zm0-1.3c-2.2 0-3.2-2.7-3.2-8.9 0-6.2 1-8.8 3.2-8.8 2.1 0 3.1 2.6 3.1 8.8 0 6.2-1 8.9-3.1 8.9z"/>
	<path id="Capa 1 copy 2" fill-rule="evenodd" class="s3" d="m257 56.7c48.5-0.7 42 53.4 77.6 96.1l-0.4 50.3c-50.1-0.1-105.2-0.2-155.2-0.3v-37c55.7-43 35.2-108.4 78-109.1z"/>
	<path id="Capa 2" class="s4" d="m257.1 56.2h2v148h-2z"/>
</svg>